<svg width="92" height="35" viewBox="0 0 92 35" fill="none" xmlns="http://www.w3.org/2000/svg">
<path d="M19.1873 34.2218C19.1873 34.2651 19.1873 34.3598 19.1873 34.3598C19.1873 34.5165 19.0637 34.6391 18.8989 34.6473C18.8989 34.6473 18.8061 34.6494 18.7649 34.6494C18.7649 34.6494 0.47405 34.6494 0.422527 34.6494C0.391613 34.6494 0.288561 34.6473 0.288561 34.6473C0.133991 34.6391 0.0103147 34.5165 0.0103147 34.3598C0.0103147 34.3598 0 34.2651 0 34.2218V32.639C0 32.1639 0.32983 31.8074 0.855369 31.7414C1.26756 31.6909 1.92701 31.6085 2.35981 31.5467C3.76125 31.3107 4.55473 30.7749 4.69899 29.2117C4.7196 28.9602 4.75057 28.1956 4.75057 28.1956L4.77107 26.8539V7.79644L4.75057 6.45169C4.75057 6.45169 4.7196 5.68917 4.69899 5.43877C4.55473 3.87555 3.76125 3.34072 2.35981 3.10475C1.92701 3.04189 1.26756 2.95943 0.855369 2.90688C0.32983 2.8399 0 2.48437 0 2.01138C0 2.01138 0 0.471893 0 0.429646C0 0.386364 0.0103147 0.287441 0.0103147 0.287441C0.0103147 0.13287 0.133991 0.00820541 0.288561 0.00202179C0.288561 0.00202179 0.391613 -5.34058e-05 0.422527 -5.34058e-05C0.47405 -5.34058e-05 18.7649 -5.34058e-05 18.7649 -5.34058e-05C18.8061 -5.34058e-05 18.8989 0.00202179 18.8989 0.00202179C19.0637 0.00820541 19.1873 0.13287 19.1873 0.287441C19.1873 0.287441 19.1873 0.386364 19.1873 0.429646V2.01138C19.1873 2.48437 18.8679 2.8399 18.3321 2.90688C17.9302 2.95943 17.2707 3.04189 16.8379 3.10475C15.4365 3.34072 14.643 3.87555 14.4884 5.43877C14.4678 5.68917 14.4369 6.45169 14.4369 6.45169L14.4265 7.79644V26.8539L14.4369 28.1956C14.4369 28.1956 14.4678 28.9602 14.4884 29.2117C14.643 30.7749 15.4365 31.3107 16.8379 31.5467C17.2707 31.6085 17.9302 31.6909 18.3321 31.7414C18.8679 31.8074 19.1873 32.1639 19.1873 32.639V34.2218Z" fill="#DCDCDC"/>
<path d="M48.39 34.2218C48.39 34.2651 48.39 34.3598 48.39 34.3598C48.39 34.5165 48.5137 34.6391 48.6683 34.6473C48.6683 34.6473 48.7712 34.6494 48.8124 34.6494C48.8536 34.6494 67.1445 34.6494 67.1445 34.6494C67.1857 34.6494 67.2784 34.6473 67.2784 34.6473C67.4433 34.6391 67.5567 34.5165 67.567 34.3598C67.567 34.3598 67.5773 34.2651 67.5773 34.2218V32.639C67.5773 32.1639 67.2372 31.8074 66.7116 31.7414C66.3097 31.6909 65.6503 31.6085 65.2175 31.5467C63.8161 31.3107 63.0226 30.7749 62.8783 29.2117C62.8474 28.9602 62.8269 28.1956 62.8269 28.1956L62.8062 26.8539V7.79644L62.8269 6.45169C62.8269 6.45169 62.8474 5.68917 62.8783 5.43877C63.0226 3.87555 63.8161 3.34072 65.2175 3.10475C65.6503 3.04189 66.3097 2.95943 66.7116 2.90688C67.2372 2.8399 67.5773 2.48437 67.5773 2.01138V0.429646C67.5773 0.386364 67.567 0.287441 67.567 0.287441C67.5567 0.13287 67.4433 0.00820541 67.2784 0.00202179C67.2784 0.00202179 67.1857 -5.34058e-05 67.1445 -5.34058e-05C67.1445 -5.34058e-05 48.8536 -5.34058e-05 48.8124 -5.34058e-05C48.7712 -5.34058e-05 48.6683 0.00202179 48.6683 0.00202179C48.5137 0.00820541 48.39 0.13287 48.39 0.287441C48.39 0.287441 48.39 0.386364 48.39 0.429646C48.39 0.471893 48.39 2.01138 48.39 2.01138C48.39 2.48437 48.7094 2.8399 49.2453 2.90688C49.6471 2.95943 50.3066 3.04189 50.7394 3.10475C52.1408 3.34072 52.9343 3.87555 53.0786 5.43877C53.1095 5.68917 53.1301 6.45169 53.1301 6.45169L53.1508 7.79644V14.3853H38.8479V7.79644L38.8685 6.45169C38.8685 6.45169 38.8993 5.68917 38.9199 5.43877C39.0745 3.87555 39.8577 3.34072 41.2591 3.10475C41.7022 3.04189 42.3617 2.95943 42.7636 2.90688C43.2891 2.8399 43.6189 2.48437 43.6189 2.01138V0.429646C43.6189 0.386364 43.6189 0.287441 43.6189 0.287441C43.6086 0.13287 43.4849 0.00820541 43.3304 0.00202179C43.3304 0.00202179 43.2376 -5.34058e-05 43.1964 -5.34058e-05C43.1964 -5.34058e-05 24.9056 -5.34058e-05 24.854 -5.34058e-05C24.8128 -5.34058e-05 24.7201 0.00202179 24.7201 0.00202179C24.5655 0.00820541 24.4419 0.13287 24.4316 0.287441C24.4316 0.287441 24.4316 0.386364 24.4316 0.429646C24.4316 0.471893 24.4316 2.01138 24.4316 2.01138C24.4316 2.48437 24.7613 2.8399 25.2869 2.90688C25.6888 2.95943 26.3585 3.04189 26.781 3.10475C28.1928 3.34072 28.9759 3.87555 29.1305 5.43877C29.1511 5.68917 29.1821 6.45169 29.1821 6.45169L29.1924 7.79644V26.8539L29.1821 28.1956C29.1821 28.1956 29.1511 28.9602 29.1305 29.2117C28.9759 30.7749 28.1928 31.3107 26.781 31.5467C26.3585 31.6085 25.6888 31.6909 25.2869 31.7414C24.7613 31.8074 24.4316 32.1639 24.4316 32.639C24.4316 32.639 24.4316 34.1795 24.4316 34.2218C24.4316 34.2651 24.4316 34.3598 24.4316 34.3598C24.4419 34.5165 24.5655 34.6391 24.7201 34.6473C24.7201 34.6473 24.8128 34.6494 24.854 34.6494C24.9056 34.6494 43.1861 34.6494 43.1861 34.6494C43.2376 34.6494 43.3304 34.6473 43.3304 34.6473C43.4849 34.6391 43.6086 34.5165 43.6189 34.3598C43.6189 34.3598 43.6189 34.2651 43.6189 34.2218V32.639C43.6189 32.1639 43.2891 31.8074 42.7636 31.7414C42.3617 31.6909 41.7022 31.6085 41.2591 31.5467C39.8577 31.3107 39.0745 30.7749 38.9199 29.2117C38.8993 28.9602 38.8685 28.1956 38.8685 28.1956L38.8479 26.8539V19.5551H53.1508V26.8539L53.1301 28.1956C53.1301 28.1956 53.1095 28.9602 53.0786 29.2117C52.9343 30.7749 52.1408 31.3107 50.7394 31.5467C50.3066 31.6085 49.6471 31.6909 49.2453 31.7414C48.7094 31.8074 48.39 32.1639 48.39 32.639C48.39 32.639 48.39 34.1795 48.39 34.2218Z" fill="#DCDCDC"/>
<path d="M72.8125 34.2218C72.8125 34.2651 72.8125 34.3598 72.8125 34.3598C72.8228 34.5165 72.9465 34.6391 73.1011 34.6473C73.1011 34.6473 73.2041 34.6494 73.2453 34.6494C73.2763 34.6494 91.5773 34.6494 91.5773 34.6494C91.6082 34.6494 91.7112 34.6473 91.7112 34.6473C91.8658 34.6391 91.9895 34.5165 91.9998 34.3598C91.9998 34.3598 91.9998 34.2651 91.9998 34.2218V32.639C91.9998 32.1639 91.6701 31.8074 91.1446 31.7414C90.7427 31.6909 90.0831 31.6085 89.6503 31.5467C88.2386 31.3107 87.4452 30.7749 87.3009 29.2117C87.2803 28.9602 87.2494 28.1956 87.2494 28.1956L87.239 26.8539V7.79644L87.2494 6.45169C87.2494 6.45169 87.2803 5.68917 87.3009 5.43877C87.4452 3.87555 88.2386 3.34072 89.6503 3.10475C90.0831 3.04189 90.7427 2.95943 91.1446 2.90688C91.6701 2.8399 91.9998 2.48437 91.9998 2.01138V0.429646C91.9998 0.386364 91.9998 0.287441 91.9998 0.287441C91.9895 0.13287 91.8658 0.00820541 91.7112 0.00202179C91.7112 0.00202179 91.6082 -5.34058e-05 91.5773 -5.34058e-05C91.5773 -5.34058e-05 73.2763 -5.34058e-05 73.2453 -5.34058e-05C73.2041 -5.34058e-05 73.1011 0.00202179 73.1011 0.00202179C72.9465 0.00820541 72.8228 0.13287 72.8125 0.287441C72.8125 0.287441 72.8125 0.386364 72.8125 0.429646C72.8125 0.471893 72.8125 2.01138 72.8125 2.01138C72.8125 2.48437 73.1422 2.8399 73.6677 2.90688C74.0696 2.95943 74.7395 3.04189 75.1723 3.10475C76.5737 3.34072 77.3672 3.87555 77.5115 5.43877C77.5424 5.68917 77.5629 6.45169 77.5629 6.45169L77.5733 7.79644V26.8539L77.5629 28.1956C77.5629 28.1956 77.5424 28.9602 77.5115 29.2117C77.3672 30.7749 76.5737 31.3107 75.1723 31.5467C74.7395 31.6085 74.0696 31.6909 73.6677 31.7414C73.1422 31.8074 72.8125 32.1639 72.8125 32.639C72.8125 32.639 72.8125 34.1795 72.8125 34.2218Z" fill="#DCDCDC"/>
</svg>
